v -0.077502 -0.238964 -0.967931
vn -0.081624 -0.251859 -0.964316
v 0.203298 -0.147700 -0.967912
vn 0.214299 -0.155616 -0.964292
v -0.251050 0.000000 -0.967974
vn -0.264596 -0.000000 -0.964360
v -0.000000 0.000000 -1.000000
vn 0.000116 0.000000 -1.000000
v 0.203298 0.147700 -0.967912
vn 0.214299 0.155616 -0.964292
v -0.077502 0.238964 -0.967931
vn -0.081624 0.251859 -0.964316
v -0.162235 -0.500226 -0.850561
vn -0.162188 -0.500235 -0.850564
v 0.138440 -0.425518 -0.894298
vn 0.143316 -0.440553 -0.886213
v 0.425539 -0.309163 -0.850491
vn 0.425574 -0.309105 -0.850495
v -0.361615 -0.263021 -0.894457
vn -0.374466 -0.272324 -0.886349
v -0.525605 0.000000 -0.850728
vn -0.525633 0.000000 -0.850711
v 0.447461 0.000000 -0.894304
vn 0.463270 0.000000 -0.886217
v -0.361615 0.263021 -0.894457
vn -0.374466 0.272324 -0.886349
v 0.425539 0.309163 -0.850491
vn 0.425574 0.309105 -0.850495
v 0.138440 0.425518 -0.894298
vn 0.143316 0.440553 -0.886213
v -0.162235 0.500226 -0.850561
vn -0.162188 0.500235 -0.850564
v 0.053146 -0.688434 -0.723350
vn 0.065965 -0.678949 -0.731216
v 0.362114 -0.587971 -0.723300
vn 0.346135 -0.587852 -0.731178
v -0.446927 -0.526051 -0.723552
vn -0.451830 -0.510812 -0.731383
v -0.638041 -0.263068 -0.723670
vn -0.625111 -0.272366 -0.731474
v 0.671108 -0.162524 -0.723326
vn 0.666057 -0.147364 -0.731199
v -0.638041 0.263068 -0.723670
vn -0.625111 0.272366 -0.731474
v 0.671108 0.162524 -0.723326
vn 0.666057 0.147364 -0.731199
v -0.446927 0.526051 -0.723552
vn -0.451830 0.510812 -0.731383
v 0.362114 0.587971 -0.723300
vn 0.346135 0.587852 -0.731178
v 0.053146 0.688434 -0.723350
vn 0.065965 0.678949 -0.731216
v -0.232492 -0.716850 -0.657323
vn -0.229588 -0.708026 -0.667823
v 0.609767 -0.443008 -0.657212
vn 0.602289 -0.437492 -0.667719
v -0.753377 0.000000 -0.657589
vn -0.744108 -0.000000 -0.668060
v 0.609767 0.443008 -0.657212
vn 0.602288 0.437492 -0.667719
v -0.232492 0.716850 -0.657323
vn -0.229588 0.708026 -0.667823
v -0.029197 -0.864397 -0.501962
vn -0.015472 -0.863453 -0.504192
v 0.263253 -0.809151 -0.525331
vn 0.263166 -0.809099 -0.525455
v -0.483585 -0.716953 -0.502120
vn -0.494317 -0.708052 -0.504295
v 0.532202 -0.681814 -0.501887
vn 0.520459 -0.689185 -0.504129
v -0.687957 -0.500386 -0.525670
vn -0.687989 -0.500308 -0.525702
v 0.812942 -0.295309 -0.501913
vn 0.816302 -0.281900 -0.504166
v -0.830987 -0.239070 -0.502301
vn -0.825876 -0.251915 -0.504447
v 0.850891 0.000000 -0.525343
vn 0.850807 0.000000 -0.525479
v -0.830987 0.239070 -0.502301
vn -0.825876 0.251915 -0.504447
v 0.812942 0.295309 -0.501913
vn 0.816302 0.281900 -0.504166
v -0.687957 0.500386 -0.525670
vn -0.687989 0.500308 -0.525702
v 0.532202 0.681814 -0.501887
vn 0.520459 0.689185 -0.504129
v -0.483585 0.716953 -0.502120
vn -0.494317 0.708052 -0.504295
v -0.029197 0.864397 -0.501962
vn -0.015472 0.863453 -0.504192
v 0.263253 0.809151 -0.525331
vn 0.263166 0.809099 -0.525455
v -0.275974 -0.850921 -0.446958
vn -0.275997 -0.850879 -0.447024
v 0.723761 -0.525826 -0.446852
vn 0.723735 -0.525783 -0.446944
v -0.894427 0.000000 -0.447214
vn -0.894416 0.000000 -0.447236
v 0.723761 0.525826 -0.446852
vn 0.723735 0.525783 -0.446944
v -0.275974 0.850921 -0.446958
vn -0.275997 0.850879 -0.447023
v 0.138386 -0.951098 -0.276155
vn 0.154232 -0.950939 -0.268193
v 0.447279 -0.850695 -0.276152
vn 0.434355 -0.859895 -0.268174
v -0.670567 -0.688490 -0.276261
vn -0.683351 -0.678980 -0.268361
v -0.861697 -0.425594 -0.276312
vn -0.856640 -0.440596 -0.268407
v 0.947259 -0.162511 -0.276207
vn 0.952035 -0.147359 -0.268171
v 0.947259 0.162511 -0.276207
vn 0.952035 0.147359 -0.268171
v -0.861697 0.425594 -0.276312
vn -0.856640 0.440596 -0.268407
v -0.670567 0.688490 -0.276261
vn -0.683351 0.678980 -0.268361
v 0.447279 0.850695 -0.276152
vn 0.434355 0.859895 -0.268174
v 0.138386 0.951098 -0.276155
vn 0.154232 0.950939 -0.268193
v -0.154949 -0.955518 -0.250950
vn -0.147930 -0.959540 -0.239583
v -0.435705 -0.864391 -0.250979
vn -0.443815 -0.863482 -0.239641
v 0.687142 -0.681809 -0.250942
vn 0.683835 -0.689202 -0.239521
v 0.860690 -0.442978 -0.250964
vn 0.866729 -0.437501 -0.239528
v -0.956623 -0.147734 -0.251092
vn -0.958273 -0.155662 -0.239754
v -0.956623 0.147734 -0.251092
vn -0.958273 0.155662 -0.239754
v 0.860690 0.442978 -0.250964
vn 0.866729 0.437501 -0.239528
v 0.687142 0.681809 -0.250942
vn 0.683835 0.689202 -0.239520
v -0.435705 0.864390 -0.250979
vn -0.443814 0.863482 -0.239641
v -0.154949 0.955518 -0.250950
vn -0.147930 0.959540 -0.239583
v -0.308897 -0.951095 0.000000
vn -0.308876 -0.950937 0.017734
v -0.000000 -1.000000 0.000000
vn 0.000000 -1.000000 -0.000000
v 0.308898 -0.951095 0.000000
vn 0.308876 -0.950937 -0.017734
v -0.587613 -0.809142 0.000000
vn -0.587644 -0.809120 -0.000052
v 0.587612 -0.809142 0.000000
vn 0.587644 -0.809120 0.000052
v -0.808883 -0.587970 0.000000
vn -0.808776 -0.587846 -0.017838
v 0.808883 -0.587970 0.000000
vn 0.808776 -0.587846 0.017838
v -0.951008 -0.309166 0.000000
vn -0.951020 -0.309131 -0.000074
v 0.951008 -0.309166 0.000000
vn 0.951020 -0.309131 0.000074
v -1.000000 0.000000 0.000000
vn -0.999844 0.000000 0.017685
v 1.000000 0.000000 0.000000
vn 0.999844 0.000000 -0.017685
v -0.951008 0.309166 0.000000
vn -0.951020 0.309131 -0.000074
v 0.951008 0.309166 0.000000
vn 0.951020 0.309131 0.000074
v -0.808883 0.587970 0.000000
vn -0.808776 0.587846 -0.017838
v 0.808883 0.587970 0.000000
vn 0.808776 0.587846 0.017838
v -0.587613 0.809142 0.000000
vn -0.587644 0.809120 -0.000052
v 0.587612 0.809142 0.000000
vn 0.587644 0.809120 0.000052
v -0.308897 0.951095 0.000000
vn -0.308876 0.950937 0.017734
v 0.308898 0.951095 0.000000
vn 0.308876 0.950937 -0.017734
v -0.000000 1.000000 0.000000
vn 0.000000 1.000000 0.000000
v 0.154949 -0.955518 0.250950
vn 0.147930 -0.959540 0.239583
v 0.435704 -0.864391 0.250979
vn 0.443815 -0.863482 0.239641
v -0.687142 -0.681809 0.250942
vn -0.683835 -0.689202 0.239521
v -0.860690 -0.442978 0.250964
vn -0.866729 -0.437501 0.239528
v 0.956623 -0.147734 0.251092
vn 0.958273 -0.155663 0.239754
v 0.956623 0.147734 0.251092
vn 0.958273 0.155663 0.239754
v -0.860690 0.442978 0.250964
vn -0.866729 0.437501 0.239528
v -0.687142 0.681809 0.250942
vn -0.683835 0.689202 0.239520
v 0.435704 0.864390 0.250979
vn 0.443814 0.863482 0.239641
v 0.154949 0.955518 0.250950
vn 0.147930 0.959540 0.239583
v -0.138387 -0.951098 0.276155
vn -0.154232 -0.950939 0.268193
v -0.447279 -0.850695 0.276152
vn -0.434354 -0.859895 0.268174
v 0.670567 -0.688490 0.276261
vn 0.683351 -0.678980 0.268361
v 0.861697 -0.425594 0.276312
vn 0.856640 -0.440596 0.268407
v -0.947259 -0.162511 0.276207
vn -0.952035 -0.147358 0.268171
v -0.947259 0.162511 0.276207
vn -0.952035 0.147358 0.268171
v 0.861697 0.425594 0.276312
vn 0.856640 0.440596 0.268407
v 0.670567 0.688490 0.276261
vn 0.683351 0.678980 0.268361
v -0.447279 0.850695 0.276152
vn -0.434354 0.859895 0.268173
v -0.138387 0.951098 0.276155
vn -0.154232 0.950939 0.268193
v 0.275974 -0.850921 0.446958
vn 0.275997 -0.850879 0.447023
v -0.723761 -0.525826 0.446852
vn -0.723735 -0.525783 0.446944
v 0.894427 0.000000 0.447214
vn 0.894416 0.000000 0.447236
v -0.723761 0.525826 0.446852
vn -0.723735 0.525783 0.446944
v 0.275974 0.850921 0.446958
vn 0.275997 0.850879 0.447023
v -0.263253 -0.809151 0.525331
vn -0.263166 -0.809099 0.525455
v 0.029197 -0.864397 0.501962
vn 0.015472 -0.863453 0.504192
v 0.483585 -0.716953 0.502120
vn 0.494317 -0.708052 0.504295
v -0.532202 -0.681814 0.501887
vn -0.520459 -0.689186 0.504129
v 0.687957 -0.500386 0.525670
vn 0.687990 -0.500308 0.525702
v -0.812942 -0.295309 0.501913
vn -0.816302 -0.281900 0.504166
v 0.830987 -0.239070 0.502301
vn 0.825876 -0.251915 0.504447
v -0.850891 0.000000 0.525343
vn -0.850807 0.000000 0.525479
v 0.830987 0.239070 0.502301
vn 0.825876 0.251915 0.504447
v -0.812942 0.295309 0.501913
vn -0.816302 0.281900 0.504166
v 0.687957 0.500386 0.525670
vn 0.687990 0.500308 0.525702
v -0.532202 0.681814 0.501887
vn -0.520459 0.689185 0.504129
v 0.483585 0.716953 0.502120
vn 0.494317 0.708052 0.504295
v -0.263253 0.809151 0.525331
vn -0.263166 0.809099 0.525455
v 0.029197 0.864397 0.501962
vn 0.015472 0.863453 0.504192
v 0.232492 -0.716850 0.657323
vn 0.229587 -0.708026 0.667824
v -0.609767 -0.443008 0.657212
vn -0.602289 -0.437492 0.667719
v 0.753376 0.000000 0.657589
vn 0.744108 0.000000 0.668060
v -0.609767 0.443008 0.657212
vn -0.602289 0.437492 0.667719
v 0.232492 0.716850 0.657323
vn 0.229587 0.708026 0.667824
v -0.053147 -0.688434 0.723350
vn -0.065965 -0.678949 0.731216
v -0.362114 -0.587971 0.723301
vn -0.346135 -0.587852 0.731178
v 0.446927 -0.526051 0.723552
vn 0.451830 -0.510812 0.731383
v -0.671108 -0.162524 0.723326
vn -0.666057 -0.147364 0.731199
v 0.638041 -0.263068 0.723670
vn 0.625111 -0.272366 0.731474
v -0.671108 0.162524 0.723326
vn -0.666057 0.147364 0.731199
v 0.638041 0.263068 0.723670
vn 0.625111 0.272366 0.731474
v 0.446927 0.526051 0.723552
vn 0.451830 0.510812 0.731383
v -0.362114 0.587971 0.723301
vn -0.346135 0.587852 0.731178
v -0.053147 0.688434 0.723350
vn -0.065965 0.678949 0.731216
v 0.162235 -0.500226 0.850561
vn 0.162188 -0.500235 0.850564
v -0.138440 -0.425518 0.894298
vn -0.143316 -0.440552 0.886213
v -0.425539 -0.309163 0.850491
vn -0.425574 -0.309104 0.850495
v 0.361615 -0.263021 0.894457
vn 0.374466 -0.272324 0.886349
v -0.447461 0.000000 0.894304
vn -0.463270 0.000000 0.886217
v 0.525605 0.000000 0.850729
vn 0.525633 0.000000 0.850712
v 0.361615 0.263021 0.894457
vn 0.374466 0.272324 0.886349
v -0.425539 0.309163 0.850491
vn -0.425574 0.309104 0.850495
v -0.138440 0.425518 0.894298
vn -0.143316 0.440552 0.886213
v 0.162235 0.500226 0.850561
vn 0.162188 0.500235 0.850564
v 0.077502 -0.238964 0.967931
vn 0.081625 -0.251859 0.964316
v -0.203298 -0.147700 0.967912
vn -0.214299 -0.155616 0.964292
v 0.251050 0.000000 0.967974
vn 0.264596 0.000000 0.964359
v -0.203298 0.147700 0.967912
vn -0.214299 0.155616 0.964292
v 0.077502 0.238964 0.967931
vn 0.081625 0.251859 0.964316
v -0.000000 0.000000 1.000000
vn -0.000116 0.000000 1.000000
f 143//143 144//144 153//153
f 152//152 143//143 153//153
f 143//143 127//127 144//144
f 153//153 144//144 156//156
f 159//159 153//153 161//161
f 162//162 159//159 161//161
f 159//159 152//152 153//153
f 161//161 153//153 156//156
f 134//134 125//125 143//143
f 152//152 134//134 143//143
f 134//134 114//114 125//125
f 143//143 125//125 127//127
f 144//144 129//129 136//136
f 156//156 144//144 136//136
f 144//144 127//127 129//129
f 136//136 129//129 116//116
f 146//146 145//145 155//155
f 156//156 146//146 155//155
f 146//146 130//130 145//145
f 155//155 145//145 154//154
f 161//161 155//155 160//160
f 162//162 161//161 160//160
f 161//161 156//156 155//155
f 160//160 155//155 154//154
f 136//136 131//131 146//146
f 156//156 136//136 146//146
f 136//136 116//116 131//131
f 146//146 131//131 130//130
f 145//145 128//128 135//135
f 154//154 145//145 135//135
f 145//145 130//130 128//128
f 135//135 128//128 115//115
f 142//142 140//140 151//151
f 154//154 142//142 151//151
f 142//142 124//124 140//140
f 151//151 140//140 149//149
f 160//160 151//151 158//158
f 162//162 160//160 158//158
f 160//160 154//154 151//151
f 158//158 151//151 149//149
f 135//135 126//126 142//142
f 154//154 135//135 142//142
f 135//135 115//115 126//126
f 142//142 126//126 124//124
f 140//140 122//122 133//133
f 149//149 140//140 133//133
f 140//140 124//124 122//122
f 133//133 122//122 113//113
f 138//138 137//137 148//148
f 149//149 138//138 148//148
f 138//138 117//117 137//137
f 148//148 137//137 147//147
f 158//158 148//148 157//157
f 162//162 158//158 157//157
f 158//158 149//149 148//148
f 157//157 148//148 147//147
f 133//133 120//120 138//138
f 149//149 133//133 138//138
f 133//133 113//113 120//120
f 138//138 120//120 117//117
f 137//137 118//118 132//132
f 147//147 137//137 132//132
f 137//137 117//117 118//118
f 132//132 118//118 112//112
f 139//139 141//141 150//150
f 147//147 139//139 150//150
f 139//139 121//121 141//141
f 150//150 141//141 152//152
f 157//157 150//150 159//159
f 162//162 157//157 159//159
f 157//157 147//147 150//150
f 159//159 150//150 152//152
f 132//132 119//119 139//139
f 147//147 132//132 139//139
f 132//132 112//112 119//119
f 139//139 119//119 121//121
f 141//141 123//123 134//134
f 152//152 141//141 134//134
f 141//141 121//121 123//123
f 134//134 123//123 114//114
f 25//25 15//15 26//26
f 46//46 25//25 26//26
f 25//25 14//14 15//15
f 26//26 15//15 16//16
f 45//45 26//26 31//31
f 51//51 45//45 31//31
f 45//45 46//46 26//26
f 31//31 26//26 16//16
f 43//43 30//30 25//25
f 46//46 43//43 25//25
f 43//43 50//50 30//30
f 25//25 30//30 14//14
f 15//15 5//5 6//6
f 16//16 15//15 6//6
f 15//15 14//14 5//5
f 6//6 5//5 4//4
f 24//24 13//13 22//22
f 42//42 24//24 22//22
f 24//24 16//16 13//13
f 22//22 13//13 11//11
f 40//40 22//22 29//29
f 49//49 40//40 29//29
f 40//40 42//42 22//22
f 29//29 22//22 11//11
f 44//44 31//31 24//24
f 42//42 44//44 24//24
f 44//44 51//51 31//31
f 24//24 31//31 16//16
f 13//13 6//6 3//3
f 11//11 13//13 3//3
f 13//13 16//16 6//6
f 3//3 6//6 4//4
f 20//20 10//10 19//19
f 36//36 20//20 19//19
f 20//20 11//11 10//10
f 19//19 10//10 7//7
f 34//34 19//19 27//27
f 47//47 34//34 27//27
f 34//34 36//36 19//19
f 27//27 19//19 7//7
f 38//38 29//29 20//20
f 36//36 38//38 20//20
f 38//38 49//49 29//29
f 20//20 29//29 11//11
f 10//10 3//3 1//1
f 7//7 10//10 1//1
f 10//10 11//11 3//3
f 1//1 3//3 4//4
f 17//17 8//8 18//18
f 33//33 17//17 18//18
f 17//17 7//7 8//8
f 18//18 8//8 9//9
f 35//35 18//18 28//28
f 48//48 35//35 28//28
f 35//35 33//33 18//18
f 28//28 18//18 9//9
f 32//32 27//27 17//17
f 33//33 32//32 17//17
f 32//32 47//47 27//27
f 17//17 27//27 7//7
f 8//8 1//1 2//2
f 9//9 8//8 2//2
f 8//8 7//7 1//1
f 2//2 1//1 4//4
f 21//21 12//12 23//23
f 39//39 21//21 23//23
f 21//21 9//9 12//12
f 23//23 12//12 14//14
f 41//41 23//23 30//30
f 50//50 41//41 30//30
f 41//41 39//39 23//23
f 30//30 23//23 14//14
f 37//37 28//28 21//21
f 39//39 37//37 21//21
f 37//37 48//48 28//28
f 21//21 28//28 9//9
f 12//12 2//2 5//5
f 14//14 12//12 5//5
f 12//12 9//9 2//2
f 5//5 2//2 4//4
f 109//109 108//108 86//86
f 88//88 109//109 86//86
f 109//109 127//127 108//108
f 86//86 108//108 84//84
f 69//69 86//86 68//68
f 50//50 69//69 68//68
f 69//69 88//88 86//86
f 68//68 86//86 84//84
f 100//100 129//129 109//109
f 88//88 100//100 109//109
f 100//100 116//116 129//129
f 109//109 129//129 127//127
f 108//108 125//125 97//97
f 84//84 108//108 97//97
f 108//108 127//127 125//125
f 97//97 125//125 114//114
f 110//110 111//111 89//89
f 87//87 110//110 89//89
f 110//110 130//130 111//111
f 89//89 111//111 91//91
f 70//70 89//89 71//71
f 51//51 70//70 71//71
f 70//70 87//87 89//89
f 71//71 89//89 91//91
f 99//99 128//128 110//110
f 87//87 99//99 110//110
f 99//99 115//115 128//128
f 110//110 128//128 130//130
f 111//111 131//131 101//101
f 91//91 111//111 101//101
f 111//111 130//130 131//131
f 101//101 131//131 116//116
f 106//106 107//107 81//81
f 79//79 106//106 81//81
f 106//106 124//124 107//107
f 81//81 107//107 83//83
f 66//66 81//81 67//67
f 49//49 66//66 67//67
f 66//66 79//79 81//81
f 67//67 81//81 83//83
f 95//95 122//122 106//106
f 79//79 95//95 106//106
f 95//95 113//113 122//122
f 106//106 122//122 124//124
f 107//107 126//126 98//98
f 83//83 107//107 98//98
f 107//107 124//124 126//126
f 98//98 126//126 115//115
f 102//102 103//103 72//72
f 73//73 102//102 72//72
f 102//102 117//117 103//103
f 72//72 103//103 75//75
f 62//62 72//72 63//63
f 47//47 62//62 63//63
f 62//62 73//73 72//72
f 63//63 72//72 75//75
f 92//92 118//118 102//102
f 73//73 92//92 102//102
f 92//92 112//112 118//118
f 102//102 118//118 117//117
f 103//103 120//120 94//94
f 75//75 103//103 94//94
f 103//103 117//117 120//120
f 94//94 120//120 113//113
f 105//105 104//104 78//78
f 80//80 105//105 78//78
f 105//105 121//121 104//104
f 78//78 104//104 76//76
f 65//65 78//78 64//64
f 48//48 65//65 64//64
f 65//65 80//80 78//78
f 64//64 78//78 76//76
f 96//96 123//123 105//105
f 80//80 96//96 105//105
f 96//96 114//114 123//123
f 105//105 123//123 121//121
f 104//104 119//119 93//93
f 76//76 104//104 93//93
f 104//104 121//121 119//119
f 93//93 119//119 112//112
f 61//61 90//90 60//60
f 46//46 61//61 60//60
f 61//61 91//91 90//90
f 60//60 90//90 88//88
f 43//43 60//60 69//69
f 50//50 43//43 69//69
f 43//43 46//46 60//60
f 69//69 60//60 88//88
f 45//45 71//71 61//61
f 46//46 45//45 61//61
f 45//45 51//51 71//71
f 61//61 71//71 91//91
f 90//90 101//101 100//100
f 88//88 90//90 100//100
f 90//90 91//91 101//101
f 100//100 101//101 116//116
f 58//58 85//85 59//59
f 42//42 58//58 59//59
f 58//58 83//83 85//85
f 59//59 85//85 87//87
f 44//44 59//59 70//70
f 51//51 44//44 70//70
f 44//44 42//42 59//59
f 70//70 59//59 87//87
f 40//40 67//67 58//58
f 42//42 40//40 58//58
f 40//40 49//49 67//67
f 58//58 67//67 83//83
f 85//85 98//98 99//99
f 87//87 85//85 99//99
f 85//85 83//83 98//98
f 99//99 98//98 115//115
f 54//54 77//77 55//55
f 36//36 54//54 55//55
f 54//54 75//75 77//77
f 55//55 77//77 79//79
f 38//38 55//55 66//66
f 49//49 38//38 66//66
f 38//38 36//36 55//55
f 66//66 55//55 79//79
f 34//34 63//63 54//54
f 36//36 34//34 54//54
f 34//34 47//47 63//63
f 54//54 63//63 75//75
f 77//77 94//94 95//95
f 79//79 77//77 95//95
f 77//77 75//75 94//94
f 95//95 94//94 113//113
f 53//53 74//74 52//52
f 33//33 53//53 52//52
f 53//53 76//76 74//74
f 52//52 74//74 73//73
f 32//32 52//52 62//62
f 47//47 32//32 62//62
f 32//32 33//33 52//52
f 62//62 52//52 73//73
f 35//35 64//64 53//53
f 33//33 35//35 53//53
f 35//35 48//48 64//64
f 53//53 64//64 76//76
f 74//74 93//93 92//92
f 73//73 74//74 92//92
f 74//74 76//76 93//93
f 92//92 93//93 112//112
f 57//57 82//82 56//56
f 39//39 57//57 56//56
f 57//57 84//84 82//82
f 56//56 82//82 80//80
f 37//37 56//56 65//65
f 48//48 37//37 65//65
f 37//37 39//39 56//56
f 65//65 56//56 80//80
f 41//41 68//68 57//57
f 39//39 41//41 57//57
f 41//41 50//50 68//68
f 57//57 68//68 84//84
f 82//82 97//97 96//96
f 80//80 82//82 96//96
f 82//82 84//84 97//97
f 96//96 97//97 114//114
